<svg xmlns="http://www.w3.org/2000/svg" xmlns:xlink="http://www.w3.org/1999/xlink" viewBox="0 0 882.67 847.74"><defs><style>.cls-1{fill:#fff;}.cls-2{fill:#ffe12a;}.cls-3{fill:#f9c900;}.cls-4{fill:url(#linear-gradient);}.cls-5{fill:url(#linear-gradient-2);}.cls-6{fill:url(#linear-gradient-3);}.cls-7{fill:#fff6c0;}.cls-8{fill:none;stroke:#e29500;stroke-linejoin:round;stroke-width:40px;}.cls-9{fill:#bf5e00;}</style><linearGradient id="linear-gradient" x1="143" y1="260.68" x2="315.44" y2="454.67" gradientUnits="userSpaceOnUse"><stop offset="0" stop-color="#fff1a2" stop-opacity="0.94"/><stop offset="1" stop-color="#fdeeb5" stop-opacity="0"/></linearGradient><linearGradient id="linear-gradient-2" x1="13.32" y1="802.54" x2="467.5" y2="482.3" xlink:href="#linear-gradient"/><linearGradient id="linear-gradient-3" x1="362.87" y1="149.28" x2="549.16" y2="471.05" gradientUnits="userSpaceOnUse"><stop offset="0" stop-color="#fffadb" stop-opacity="0.85"/><stop offset="1" stop-color="#fdeeb5" stop-opacity="0.09"/></linearGradient></defs><title>Asset 2</title><g id="Layer_2" data-name="Layer 2"><g id="small-stars"><g id="_10" data-name="10"><path class="cls-1" d="M441.33,0a83.79,83.79,0,0,0-75.27,46.44L274.15,229.6,71.56,260.41A84.18,84.18,0,0,0,25,403.59l145.79,144-33.3,202.19a84.16,84.16,0,0,0,121.79,88.49l182-94.15,182,94.15a84.19,84.19,0,0,0,121.8-88.49L711.84,547.6l145.79-144A84.22,84.22,0,0,0,811.1,260.41L608.51,229.6,516.61,46.45A83.79,83.79,0,0,0,441.33,0Z"/><path class="cls-2" d="M315.39,288.07,81.19,323.69A20,20,0,0,0,64.56,339L441.33,461.41Z"/><path class="cls-3" d="M567.28,288.07l-1.12-.17L459.4,75.15A20,20,0,0,0,441.33,64V461.41Z"/><path class="cls-3" d="M812.65,358.06A20,20,0,0,0,818.11,339L441.33,461.41,643.6,527.13l-.29-1.8Z"/><path class="cls-2" d="M441.33,672.07,652.75,781.44a19.94,19.94,0,0,0,20.34-1l-231.76-319Z"/><path class="cls-2" d="M239.06,527.13,200.68,760.19a20,20,0,0,0,8.9,20.21l231.75-319Z"/><path class="cls-2" d="M818.11,339a20,20,0,0,0-16.63-15.3l-234.2-35.62L441.33,461.41Z"/><path class="cls-2" d="M441.33,64a20,20,0,0,0-18.07,11.15L316.51,287.9l-1.12.17L441.33,461.41Z"/><path class="cls-4" d="M315.39,288.07,81.19,323.69A20,20,0,0,0,64.56,339L441.33,461.41Z"/><path class="cls-5" d="M239.06,527.13,200.68,760.19a20,20,0,0,0,8.9,20.21l231.75-319Z"/><path class="cls-6" d="M441.33,64a20,20,0,0,0-18.07,11.15L316.51,287.9l-1.12.17L441.33,461.41Z"/><path class="cls-3" d="M64.56,339A19.94,19.94,0,0,0,70,358.06L239.36,525.33l-.3,1.8,202.27-65.72Z"/><path class="cls-3" d="M209.58,780.4a19.94,19.94,0,0,0,20.34,1L441.33,672.07V461.41Z"/><path class="cls-3" d="M673.09,780.4a20,20,0,0,0,8.9-20.21L643.6,527.13,441.33,461.41Z"/><polygon class="cls-7" points="441.33 314.22 451.67 447.19 581.32 415.93 458.05 466.84 527.85 580.49 441.33 478.99 354.82 580.49 424.62 466.84 301.35 415.93 431 447.19 441.33 314.22"/><path class="cls-8" d="M818.11,339a20,20,0,0,0-16.63-15.3l-234.2-35.62-1.12-.17L459.4,75.15a20.22,20.22,0,0,0-36.14,0L316.51,287.9l-1.12.17L81.19,323.69A20.22,20.22,0,0,0,70,358.06L239.36,525.33l-.3,1.8L200.68,760.19a20.23,20.23,0,0,0,29.24,21.25L441.33,672.07,652.75,781.44A20.23,20.23,0,0,0,682,760.19L643.6,527.13l-.29-1.8L812.65,358.06A20,20,0,0,0,818.11,339Z"/><path class="cls-9" d="M629.25,511.1a20,20,0,0,0-5.68,17.47l38.69,234.87s0,.09,0,.12a.61.61,0,0,1-.14.11l-.09.05a.31.31,0,0,1-.1-.05l-1.6-.82,24.5,33.72a40.25,40.25,0,0,0,16.88-39.63l-37-224.65,162-160a39.9,39.9,0,0,0,10.84-38h0c-.12-.51-.28-1-.42-1.51l-40.8,13.26Zm33,252.53h0Z"/><path class="cls-9" d="M441.33,652.07a20,20,0,0,0-9.19,2.24L222.33,762.84l-24.5,33.73c.26.18.52.38.79.56a39.73,39.73,0,0,0,40.49,2.07L441.33,694.59h0V652.07Z"/></g></g></g></svg>